<svg xmlns:xlink="http://www.w3.org/1999/xlink">
    <symbol id="logo" xmlns="http://www.w3.org/2000/svg" viewBox="0 0 170 60">
    <g transform="matrix(2.64413,0,0,2.64413,-106.991,-40.6694)">
        <g transform="matrix(12,0,0,12,41.3164,33.8042)">
            <path d="M0.093,-0l0,-0.723l0.188,0c0.072,0 0.127,0.014 0.166,0.041c0.039,0.028 0.058,0.067 0.058,0.119c-0,0.041 -0.013,0.078 -0.039,0.111c-0.025,0.032 -0.062,0.058 -0.11,0.076c0.119,0.036 0.178,0.101 0.178,0.195c-0,0.043 -0.013,0.08 -0.039,0.113c-0.02,0.025 -0.044,0.043 -0.072,0.053c-0.028,0.01 -0.067,0.015 -0.117,0.015l-0.213,-0Zm0.102,-0.077l0.021,0c0.075,0 0.123,-0.004 0.145,-0.014c0.043,-0.018 0.064,-0.051 0.064,-0.099c-0,-0.043 -0.019,-0.079 -0.058,-0.108c-0.038,-0.028 -0.086,-0.042 -0.143,-0.042l-0.029,-0l-0,0.263Zm-0,-0.328l0.033,-0c0.055,-0 0.097,-0.012 0.127,-0.035c0.03,-0.024 0.045,-0.057 0.045,-0.101c-0,-0.07 -0.055,-0.105 -0.165,-0.105l-0.04,0l-0,0.241Z" style="fill:#fff;fill-rule:nonzero;"/>
        </g>
        <g transform="matrix(12,0,0,12,49.6588,33.8042)">
            <path d="M0.093,-0l0,-0.723l0.404,0l0,0.077l-0.301,0l-0,0.232l0.252,-0l0,0.076l-0.252,-0l-0,0.261l0.322,0l0,0.077l-0.425,0Z" style="fill:#fff;fill-rule:nonzero;"/>
        </g>
        <g transform="matrix(12,0,0,12,57.6027,33.8042)">
            <path d="M0.093,-0l0,-0.723l0.219,0c0.069,0 0.122,0.016 0.159,0.046c0.037,0.031 0.056,0.075 0.056,0.134c-0,0.045 -0.013,0.086 -0.038,0.122c-0.026,0.036 -0.062,0.063 -0.108,0.083l0.241,0.338l-0.126,-0l-0.206,-0.306l-0.095,0l-0,0.306l-0.102,-0Zm0.102,-0.382l0.033,-0c0.063,-0 0.112,-0.013 0.144,-0.039c0.033,-0.026 0.05,-0.063 0.05,-0.113c-0,-0.075 -0.054,-0.112 -0.163,-0.112l-0.064,0l-0,0.264Z" style="fill:#fff;fill-rule:nonzero;"/>
        </g>
        <g transform="matrix(12,0,0,12,66.6306,33.8042)">
            <path d="M0.093,-0l0,-0.723l0.096,0l0,0.356l0.293,-0.356l0.103,0l-0.283,0.345l0.333,0.378l-0.13,-0l-0.316,-0.366l0,0.366l-0.096,-0Z" style="fill:#fff;fill-rule:nonzero;"/>
        </g>
        <g transform="matrix(12,0,0,12,75.9046,33.8042)">
            <path d="M0.049,-0.014l-0,-0.101c0.081,0.038 0.148,0.056 0.201,0.056c0.04,0 0.072,-0.01 0.097,-0.032c0.025,-0.021 0.037,-0.049 0.037,-0.083c-0,-0.028 -0.008,-0.052 -0.024,-0.072c-0.016,-0.02 -0.046,-0.042 -0.089,-0.067l-0.05,-0.028c-0.062,-0.035 -0.105,-0.069 -0.13,-0.1c-0.026,-0.031 -0.038,-0.067 -0.038,-0.108c-0,-0.056 0.02,-0.102 0.06,-0.138c0.041,-0.036 0.092,-0.054 0.155,-0.054c0.055,0 0.114,0.01 0.176,0.028l-0,0.094c-0.076,-0.03 -0.133,-0.045 -0.171,-0.045c-0.035,-0 -0.064,0.009 -0.087,0.028c-0.024,0.019 -0.035,0.043 -0.035,0.072c-0,0.024 0.008,0.045 0.025,0.064c0.017,0.018 0.048,0.04 0.093,0.066l0.052,0.029c0.062,0.036 0.106,0.069 0.131,0.101c0.024,0.031 0.037,0.069 0.037,0.114c-0,0.062 -0.023,0.113 -0.07,0.151c-0.046,0.038 -0.107,0.057 -0.184,0.057c-0.048,0 -0.111,-0.011 -0.186,-0.032Z" style="fill:#fff;fill-rule:nonzero;"/>
        </g>
        <g transform="matrix(12,0,0,12,83.8075,33.8042)">
            <path d="M0.093,-0l0,-0.723l0.103,0l-0,0.305l0.344,0l-0,-0.305l0.102,0l0,0.723l-0.102,-0l-0,-0.341l-0.344,-0l-0,0.341l-0.103,-0Z" style="fill:#fff;fill-rule:nonzero;"/>
        </g>
        <g transform="matrix(12,0,0,12,94.0658,33.8042)">
            <path d="M0.389,0.018c-0.103,0 -0.185,-0.034 -0.246,-0.103c-0.062,-0.069 -0.092,-0.161 -0.092,-0.276c-0,-0.116 0.03,-0.208 0.092,-0.276c0.061,-0.069 0.143,-0.104 0.246,-0.104c0.102,0 0.184,0.035 0.246,0.104c0.061,0.068 0.092,0.16 0.092,0.276c-0,0.115 -0.031,0.207 -0.092,0.276c-0.062,0.069 -0.144,0.103 -0.246,0.103Zm-0,-0.077c0.072,0 0.128,-0.026 0.168,-0.08c0.04,-0.053 0.061,-0.128 0.061,-0.223c-0,-0.095 -0.021,-0.169 -0.061,-0.222c-0.04,-0.053 -0.096,-0.08 -0.168,-0.08c-0.072,-0 -0.128,0.027 -0.169,0.08c-0.04,0.053 -0.06,0.127 -0.06,0.222c-0,0.095 0.02,0.17 0.06,0.223c0.041,0.054 0.097,0.08 0.169,0.08Z" style="fill:#feb545;fill-rule:nonzero;"/>
        </g>
    </g>
    <g transform="matrix(1.03299,0,0,1.03299,-27.3035,1.44986)">
        <g transform="matrix(12,0,0,12,57.61,17.5106)">
            <path d="M0.562,-0.026c-0.055,0.026 -0.116,0.038 -0.186,0.038c-0.049,0 -0.094,-0.009 -0.134,-0.026c-0.041,-0.017 -0.075,-0.042 -0.104,-0.072c-0.028,-0.031 -0.05,-0.068 -0.065,-0.111c-0.016,-0.042 -0.024,-0.089 -0.024,-0.139c0,-0.053 0.009,-0.103 0.025,-0.149c0.016,-0.045 0.04,-0.085 0.071,-0.119c0.03,-0.033 0.067,-0.06 0.111,-0.079c0.043,-0.019 0.092,-0.029 0.146,-0.029c0.059,0 0.113,0.009 0.16,0.027l-0,0.07c-0.051,-0.025 -0.104,-0.038 -0.161,-0.038c-0.045,0 -0.086,0.008 -0.121,0.024c-0.035,0.015 -0.065,0.037 -0.089,0.065c-0.024,0.028 -0.042,0.061 -0.055,0.098c-0.012,0.038 -0.019,0.08 -0.019,0.125c0,0.04 0.006,0.078 0.017,0.114c0.012,0.035 0.029,0.067 0.051,0.093c0.022,0.027 0.05,0.048 0.083,0.064c0.033,0.015 0.072,0.023 0.116,0.023c0.067,0 0.126,-0.014 0.178,-0.042l-0,0.063Z" style="fill:#fff;fill-rule:nonzero;"/>
        </g>
        <g transform="matrix(12,0,0,12,66.3332,17.5106)">
            <path d="M0.376,0.012c-0.05,0 -0.096,-0.009 -0.136,-0.027c-0.041,-0.019 -0.075,-0.044 -0.103,-0.076c-0.028,-0.032 -0.05,-0.069 -0.065,-0.112c-0.015,-0.044 -0.023,-0.09 -0.023,-0.139c0,-0.055 0.008,-0.105 0.023,-0.15c0.015,-0.046 0.037,-0.085 0.066,-0.117c0.029,-0.033 0.065,-0.058 0.107,-0.076c0.042,-0.018 0.089,-0.027 0.143,-0.027c0.05,0 0.094,0.009 0.133,0.027c0.04,0.017 0.073,0.042 0.101,0.073c0.028,0.032 0.049,0.069 0.064,0.112c0.015,0.043 0.022,0.09 0.022,0.14c0,0.053 -0.007,0.102 -0.022,0.148c-0.014,0.045 -0.036,0.085 -0.064,0.118c-0.028,0.033 -0.063,0.059 -0.104,0.078c-0.041,0.019 -0.088,0.028 -0.142,0.028Zm0.005,-0.665c-0.042,0 -0.079,0.008 -0.112,0.024c-0.033,0.016 -0.061,0.038 -0.083,0.066c-0.022,0.027 -0.039,0.06 -0.051,0.096c-0.012,0.037 -0.017,0.077 -0.018,0.118c-0,0.04 0.005,0.078 0.016,0.114c0.01,0.037 0.026,0.069 0.047,0.097c0.022,0.027 0.049,0.05 0.081,0.066c0.033,0.017 0.071,0.025 0.114,0.025c0.044,0 0.082,-0.007 0.115,-0.023c0.034,-0.015 0.061,-0.036 0.083,-0.063c0.022,-0.026 0.039,-0.058 0.05,-0.096c0.012,-0.037 0.017,-0.077 0.017,-0.121c0,-0.041 -0.005,-0.08 -0.015,-0.117c-0.01,-0.037 -0.025,-0.069 -0.046,-0.096c-0.021,-0.028 -0.048,-0.05 -0.08,-0.066c-0.033,-0.016 -0.072,-0.024 -0.118,-0.024Z" style="fill:#fff;fill-rule:nonzero;"/>
        </g>
        <g transform="matrix(12,0,0,12,76.8611,17.5106)">
            <path d="M0.57,-0l-0.388,-0.562c-0.005,-0.007 -0.01,-0.014 -0.015,-0.022c-0.004,-0.007 -0.008,-0.015 -0.011,-0.022l-0.003,0c0.001,0.006 0.002,0.014 0.002,0.024c0.001,0.011 0.001,0.024 0.001,0.04l-0,0.542l-0.065,-0l-0,-0.7l0.072,-0l0.382,0.555c0.006,0.009 0.011,0.017 0.016,0.025c0.005,0.007 0.009,0.014 0.013,0.021l0.002,-0c-0.001,-0.011 -0.002,-0.023 -0.003,-0.036c-0,-0.014 -0.001,-0.028 -0.001,-0.045l0,-0.52l0.066,-0l-0,0.7l-0.068,-0Z" style="fill:#fff;fill-rule:nonzero;"/>
        </g>
        <g transform="matrix(12,0,0,12,87.0433,17.5106)">
            <path d="M0.063,-0.103c0.012,0.009 0.025,0.017 0.039,0.024c0.014,0.007 0.029,0.013 0.044,0.018c0.015,0.004 0.029,0.008 0.044,0.01c0.015,0.003 0.03,0.004 0.043,0.004c0.053,0 0.093,-0.01 0.12,-0.031c0.026,-0.02 0.039,-0.05 0.039,-0.088c0,-0.019 -0.003,-0.035 -0.009,-0.049c-0.006,-0.013 -0.016,-0.026 -0.029,-0.038c-0.013,-0.012 -0.029,-0.024 -0.049,-0.036c-0.02,-0.012 -0.044,-0.026 -0.071,-0.041c-0.03,-0.016 -0.055,-0.031 -0.077,-0.046c-0.021,-0.014 -0.038,-0.029 -0.052,-0.044c-0.013,-0.015 -0.023,-0.032 -0.03,-0.049c-0.006,-0.018 -0.009,-0.038 -0.009,-0.06c-0,-0.029 0.006,-0.054 0.018,-0.076c0.012,-0.023 0.028,-0.042 0.049,-0.058c0.02,-0.016 0.044,-0.028 0.072,-0.036c0.027,-0.009 0.057,-0.013 0.088,-0.013c0.055,0 0.101,0.008 0.138,0.023l0,0.072c-0.041,-0.024 -0.09,-0.036 -0.145,-0.036c-0.021,0 -0.041,0.003 -0.059,0.008c-0.019,0.005 -0.035,0.012 -0.049,0.022c-0.013,0.01 -0.024,0.022 -0.032,0.036c-0.008,0.015 -0.012,0.032 -0.012,0.051c-0,0.018 0.002,0.034 0.008,0.047c0.005,0.013 0.014,0.026 0.026,0.037c0.012,0.012 0.027,0.024 0.047,0.035c0.019,0.012 0.043,0.025 0.071,0.04c0.029,0.016 0.054,0.031 0.076,0.046c0.022,0.015 0.04,0.03 0.055,0.046c0.014,0.016 0.025,0.033 0.032,0.051c0.007,0.018 0.011,0.039 0.011,0.061c-0,0.03 -0.006,0.057 -0.017,0.08c-0.012,0.024 -0.027,0.043 -0.048,0.058c-0.02,0.016 -0.045,0.027 -0.073,0.035c-0.029,0.008 -0.06,0.012 -0.093,0.012c-0.012,-0 -0.025,-0.001 -0.04,-0.003c-0.015,-0.002 -0.031,-0.004 -0.046,-0.008c-0.016,-0.003 -0.031,-0.007 -0.045,-0.012c-0.014,-0.005 -0.026,-0.01 -0.035,-0.015l0,-0.077Z" style="fill:#fff;fill-rule:nonzero;"/>
        </g>
        <g transform="matrix(12,0,0,12,94.6532,17.5106)">
            <path d="M0.291,-0.641l0,0.641l-0.065,-0l0,-0.641l-0.202,0l0,-0.059l0.469,-0l0,0.059l-0.202,0Z" style="fill:#fff;fill-rule:nonzero;"/>
        </g>
        <g transform="matrix(12,0,0,12,102.304,17.5106)">
            <path d="M0.472,-0l-0.105,-0.201c-0.011,-0.02 -0.021,-0.036 -0.031,-0.049c-0.009,-0.014 -0.019,-0.024 -0.03,-0.032c-0.01,-0.008 -0.021,-0.014 -0.033,-0.018c-0.012,-0.003 -0.025,-0.005 -0.04,-0.005l-0.077,0l-0,0.305l-0.065,0l-0,-0.7l0.201,-0c0.027,-0 0.052,0.004 0.077,0.012c0.024,0.007 0.046,0.019 0.066,0.034c0.019,0.015 0.034,0.035 0.046,0.058c0.011,0.023 0.017,0.05 0.017,0.08c0,0.025 -0.004,0.048 -0.011,0.069c-0.008,0.021 -0.018,0.039 -0.032,0.055c-0.014,0.016 -0.031,0.03 -0.05,0.041c-0.02,0.011 -0.042,0.02 -0.067,0.025l-0,0.002c0.009,0.004 0.018,0.009 0.026,0.015c0.008,0.007 0.015,0.014 0.022,0.023c0.008,0.009 0.015,0.019 0.022,0.03c0.007,0.012 0.015,0.025 0.023,0.039l0.117,0.217l-0.076,0Zm-0.316,-0.641l-0,0.277l0.116,0c0.023,0 0.045,-0.003 0.064,-0.01c0.02,-0.007 0.037,-0.017 0.05,-0.029c0.014,-0.013 0.025,-0.028 0.033,-0.046c0.007,-0.018 0.011,-0.038 0.011,-0.061c0,-0.04 -0.013,-0.072 -0.039,-0.096c-0.026,-0.023 -0.064,-0.035 -0.114,-0.035l-0.121,0Z" style="fill:#fff;fill-rule:nonzero;"/>
        </g>
        <g transform="matrix(12,0,0,12,110.664,17.5106)">
            <path d="M0.585,-0.281c0,0.195 -0.085,0.293 -0.257,0.293c-0.164,0 -0.246,-0.094 -0.246,-0.283l0,-0.429l0.065,-0l-0,0.424c-0,0.076 0.015,0.134 0.046,0.172c0.031,0.038 0.079,0.057 0.144,0.057c0.122,0 0.184,-0.074 0.184,-0.223l-0,-0.43l0.064,-0l0,0.419Z" style="fill:#fff;fill-rule:nonzero;"/>
        </g>
        <g transform="matrix(12,0,0,12,120.114,17.5106)">
            <path d="M0.562,-0.026c-0.055,0.026 -0.116,0.038 -0.186,0.038c-0.049,0 -0.094,-0.009 -0.134,-0.026c-0.041,-0.017 -0.075,-0.042 -0.104,-0.072c-0.028,-0.031 -0.05,-0.068 -0.065,-0.111c-0.016,-0.042 -0.024,-0.089 -0.024,-0.139c0,-0.053 0.009,-0.103 0.025,-0.149c0.016,-0.045 0.04,-0.085 0.071,-0.119c0.03,-0.033 0.067,-0.06 0.111,-0.079c0.043,-0.019 0.092,-0.029 0.146,-0.029c0.059,0 0.113,0.009 0.16,0.027l-0,0.07c-0.051,-0.025 -0.104,-0.038 -0.161,-0.038c-0.045,0 -0.086,0.008 -0.121,0.024c-0.035,0.015 -0.065,0.037 -0.089,0.065c-0.024,0.028 -0.042,0.061 -0.055,0.098c-0.012,0.038 -0.019,0.08 -0.019,0.125c0,0.04 0.006,0.078 0.017,0.114c0.012,0.035 0.029,0.067 0.051,0.093c0.022,0.027 0.05,0.048 0.083,0.064c0.033,0.015 0.072,0.023 0.116,0.023c0.067,0 0.126,-0.014 0.178,-0.042l-0,0.063Z" style="fill:#fff;fill-rule:nonzero;"/>
        </g>
        <g transform="matrix(12,0,0,12,128.995,17.5106)">
            <path d="M0.291,-0.641l0,0.641l-0.065,-0l0,-0.641l-0.202,0l0,-0.059l0.469,-0l0,0.059l-0.202,0Z" style="fill:#fff;fill-rule:nonzero;"/>
        </g>
        <g transform="matrix(12,0,0,12,136.646,17.5106)">
            <rect x="0.091" y="-0.7" width="0.065" height="0.7" style="fill:#fff;fill-rule:nonzero;"/>
        </g>
        <g transform="matrix(12,0,0,12,141.051,17.5106)">
            <path d="M0.376,0.012c-0.05,0 -0.096,-0.009 -0.136,-0.027c-0.041,-0.019 -0.075,-0.044 -0.103,-0.076c-0.028,-0.032 -0.05,-0.069 -0.065,-0.112c-0.015,-0.044 -0.023,-0.09 -0.023,-0.139c0,-0.055 0.008,-0.105 0.023,-0.15c0.015,-0.046 0.037,-0.085 0.066,-0.117c0.029,-0.033 0.065,-0.058 0.107,-0.076c0.042,-0.018 0.089,-0.027 0.143,-0.027c0.05,0 0.094,0.009 0.133,0.027c0.04,0.017 0.073,0.042 0.101,0.073c0.028,0.032 0.049,0.069 0.064,0.112c0.015,0.043 0.022,0.09 0.022,0.14c0,0.053 -0.007,0.102 -0.022,0.148c-0.014,0.045 -0.036,0.085 -0.064,0.118c-0.028,0.033 -0.063,0.059 -0.104,0.078c-0.041,0.019 -0.088,0.028 -0.142,0.028Zm0.005,-0.665c-0.042,0 -0.079,0.008 -0.112,0.024c-0.033,0.016 -0.061,0.038 -0.083,0.066c-0.022,0.027 -0.039,0.06 -0.051,0.096c-0.012,0.037 -0.017,0.077 -0.018,0.118c-0,0.04 0.005,0.078 0.016,0.114c0.01,0.037 0.026,0.069 0.047,0.097c0.022,0.027 0.049,0.05 0.081,0.066c0.033,0.017 0.071,0.025 0.114,0.025c0.044,0 0.082,-0.007 0.115,-0.023c0.034,-0.015 0.061,-0.036 0.083,-0.063c0.022,-0.026 0.039,-0.058 0.05,-0.096c0.012,-0.037 0.017,-0.077 0.017,-0.121c0,-0.041 -0.005,-0.08 -0.015,-0.117c-0.01,-0.037 -0.025,-0.069 -0.046,-0.096c-0.021,-0.028 -0.048,-0.05 -0.08,-0.066c-0.033,-0.016 -0.072,-0.024 -0.118,-0.024Z" style="fill:#fff;fill-rule:nonzero;"/>
        </g>
        <g transform="matrix(12,0,0,12,151.579,17.5106)">
            <path d="M0.57,-0l-0.388,-0.562c-0.005,-0.007 -0.01,-0.014 -0.015,-0.022c-0.004,-0.007 -0.008,-0.015 -0.011,-0.022l-0.003,0c0.001,0.006 0.002,0.014 0.002,0.024c0.001,0.011 0.001,0.024 0.001,0.04l-0,0.542l-0.065,-0l-0,-0.7l0.072,-0l0.382,0.555c0.006,0.009 0.011,0.017 0.016,0.025c0.005,0.007 0.009,0.014 0.013,0.021l0.002,-0c-0.001,-0.011 -0.002,-0.023 -0.003,-0.036c-0,-0.014 -0.001,-0.028 -0.001,-0.045l0,-0.52l0.066,-0l-0,0.7l-0.068,-0Z" style="fill:#fff;fill-rule:nonzero;"/>
        </g>
    </g>
        </symbol>
</svg>
